<?xml version="1.0" encoding="utf-8"?>
<!-- Generator: Adobe Illustrator 22.0.1, SVG Export Plug-In . SVG Version: 6.00 Build 0)  -->
<svg version="1.1" id="Layer_1" xmlns="http://www.w3.org/2000/svg" xmlns:xlink="http://www.w3.org/1999/xlink" x="0px" y="0px"
	 viewBox="0 0 640 480" style="enable-background:new 0 0 640 480;" xml:space="preserve">
<style type="text/css">
	.st0{fill-rule:evenodd;clip-rule:evenodd;fill:#0020A4;}
	.st1{fill-rule:evenodd;clip-rule:evenodd;fill:none;}
</style>
<g>
	<polygon class="st0" points="446.1,368.6 446.1,267.5 539.2,267.5 539.2,200.8 446.1,200.8 446.1,106.4 548.3,106.4 548.3,143.1 
		615.8,143.1 615.8,40.4 345.7,40.4 345.7,106.4 371,106.4 371,368.6 345.8,368.6 345.8,435.2 470.5,435.2 470.5,368.6 446.1,368.6 
			"/>
	<path class="st0" d="M310.6,286V106.4h25V40.4H210.6v66.1H235v157.2c0,65.9-7.6,97.6-54.9,97.6c-47.3,0-54.9-31.7-54.9-97.6
		l0-157.2h24.2V40.4H24.2v66.1H49V286c0,39.2,0,71.3,18.5,100.2c20.7,32.7,58.2,53.5,112.6,53.5C276.3,439.6,310.6,389.5,310.6,286
		L310.6,286L310.6,286z"/>
	<polygon class="st0" points="446.1,368.6 446.1,267.5 539.2,267.5 539.2,200.8 446.1,200.8 446.1,106.4 548.3,106.4 548.3,143.1 
		615.8,143.1 615.8,40.4 345.7,40.4 345.7,106.4 371,106.4 371,368.6 345.8,368.6 345.8,435.2 470.5,435.2 470.5,368.6 446.1,368.6 
			"/>
	<path class="st0" d="M310.6,286V106.4h25V40.4H210.6v66.1H235v157.2c0,65.9-7.6,97.6-54.9,97.6c-47.3,0-54.9-31.7-54.9-97.6
		l0-157.2h24.2V40.4H24.2v66.1H49V286c0,39.2,0,71.3,18.5,100.2c20.7,32.7,58.2,53.5,112.6,53.5C276.3,439.6,310.6,389.5,310.6,286
		L310.6,286L310.6,286z"/>
</g>
<rect class="st1" width="640" height="480"/>
</svg>
